<svg xmlns="http://www.w3.org/2000/svg" xmlns:xlink="http://www.w3.org/1999/xlink" width="190" height="90" viewBox="0 0 325 155">
  <defs>
    <linearGradient id="linear-gradient" x1="0.651" y1="0.321" x2="0.894" y2="0.747" gradientUnits="objectBoundingBox">
      <stop offset="0" stop-color="#f6b211"/>
      <stop offset="1" stop-color="#c21706"/>
    </linearGradient>
    <linearGradient id="linear-gradient-2" x1="0.459" y1="0.436" x2="0.819" y2="1.092" xlink:href="#linear-gradient"/>
    <linearGradient id="linear-gradient-3" x1="0.799" y1="0.238" x2="0.433" y2="1" gradientUnits="objectBoundingBox">
      <stop offset="0" stop-color="#b00f1e"/>
      <stop offset="1" stop-color="#f98828"/>
    </linearGradient>
    <linearGradient id="linear-gradient-4" x1="0.34" y1="0.044" x2="1" y2="0.5" xlink:href="#linear-gradient"/>
    <clipPath id="clip-light_Grili">
      <rect width="325" height="155"/>
    </clipPath>
  </defs>
  <g id="light_Grili" data-name="light Grili" clip-path="url(#clip-light_Grili)">
    <path id="Path_2" data-name="Path 2" d="M859.941,492.442c-.957,17.689,15.236,22.735,24.494,37.514,8.084,12.9,9.928,36.909-11.427,56.352,10.327-29.561,8.072-43.67,2.551-53.706C867.771,518.441,852.924,514.346,859.941,492.442Z" transform="translate(-810 -465)" fill="url(#linear-gradient)"/>
    <path id="Path_3" data-name="Path 3" d="M878.426,601.432c-52.208,17.4-65.977-39.028-52.664-57.388,4.376,24.415,21.428,10.072,15.165-2.963-3.729-7.811-26.518-23.97-12.223-38.887-4.351,19.06,49.1,32.112,27.223,73.092,31.408-42.223-45.662-62.94-16.036-105.826-8.08,39.156,28.173,42.411,36.049,71.621C883.813,568.7,858.123,590.659,878.426,601.432Z" transform="translate(-810 -465)" fill="url(#linear-gradient-2)"/>
    <path id="Path_10" data-name="Path 10" d="M839.547,538.781c3.344,2.818,23.64,28.408,4.521,37.33-22.55,8.922-25.378-23.933-18.3-32.033,0,0,2.237,15.585,10.895,12.907C844.292,553.1,842.889,543.482,839.547,538.781Z" transform="translate(-810 -465)" fill="url(#linear-gradient-3)"/>
    <path id="Path_11" data-name="Path 11" d="M878.426,601.432c-30.79-13.659-2.025-34.357-9.251-56.675-6.9-21.491-11.632-22.156-15.206-29.954a1.389,1.389,0,0,1,1.183-2.176s17.119,13.492,20.788,28.455C883.813,568.7,858.469,589.213,878.426,601.432Z" transform="translate(-810 -465)" opacity="0.59" fill="url(#linear-gradient-4)"/>
  </g>
</svg>
